<svg version="1.1" id="Layer_1" xmlns="http://www.w3.org/2000/svg" xmlns:xlink="http://www.w3.org/1999/xlink" x="0px" y="0px" width="20.294px" height="18.849px" viewBox="264.205 370.961 20.294 18.849" enable-background="new 264.205 370.961 20.294 18.849" xml:space="preserve">
  <path d="m19.5179,7.12286l-3.151,0l-3.407,-6.814c-0.185,-0.37 -0.634,-0.52 -1.006,-0.335c-0.371,0.186 -0.521,0.636 -0.335,1.006l3.071,6.143l-9.138,0l3.072,-6.143c0.185,-0.371 0.035,-0.821 -0.335,-1.006c-0.37,-0.185 -0.821,-0.035 -1.006,0.335l-3.407,6.814l-3.151,0c-0.414,0 -0.75,0.336 -0.75,0.75s0.336,0.75 0.75,0.75l0.157,0l0.855,2.991c-0.187,0.137 -0.316,0.347 -0.316,0.595c0,0.396 0.309,0.71 0.697,0.739l1.656,5.795l12.697,0l1.656,-5.795c0.388,-0.028 0.698,-0.344 0.698,-0.739c0,-0.249 -0.129,-0.459 -0.316,-0.596l0.854,-2.991l0.157,0c0.414,0 0.75,-0.336 0.75,-0.75s-0.338,-0.749 -0.752,-0.749zm-4.181,10.121l-10.433,0l-1.224,-4.284l12.881,0l-1.224,4.284zm1.653,-5.785l-13.739,0l-0.81,-2.836l15.359,0l-0.81,2.836z" fill="#231F20"/>
</svg>
